<svg width="1080" height="1080" viewBox="0 0 1080 1080" fill="none" xmlns="http://www.w3.org/2000/svg">
<g clip-path="url(#clip0_1404_165)">
<path d="M337.918 686.309C277.538 686.309 227.467 674.773 187.705 651.701C147.943 628.383 119.962 595.003 103.762 551.559C87.5628 507.869 84.6175 455.589 94.9262 394.719C104.744 336.303 124.993 285.25 155.674 241.561C186.6 197.871 225.503 163.877 272.384 139.578C319.509 115.279 372.28 103.129 430.696 103.129C473.404 103.129 510.835 109.756 542.988 123.01C575.387 136.264 601.772 155.532 622.144 180.813C642.516 206.094 656.261 236.652 663.379 272.487C670.743 308.076 670.743 348.33 663.379 393.246L656.016 440.372H150.888L168.56 328.448H486.658C489.113 312.249 487.517 298.013 481.872 285.741C476.472 273.223 467.759 263.528 455.732 256.655C443.95 249.538 429.715 245.979 413.024 245.979C396.334 245.979 380.625 249.538 365.899 256.655C351.417 263.773 339.022 273.714 328.714 286.477C318.65 299.24 311.9 314.213 308.464 331.394L286.374 449.208C283.429 467.371 284.533 483.57 289.688 497.806C294.842 512.042 303.801 523.21 316.564 531.31C329.327 539.409 345.772 543.459 365.899 543.459C379.644 543.459 392.652 541.618 404.925 537.937C417.442 534.009 428.487 528.364 438.06 521.001C447.878 513.392 455.732 504.188 461.623 493.388H647.18C633.926 532.66 612.94 566.777 584.223 595.739C555.751 624.456 520.652 646.792 478.927 662.746C437.446 678.454 390.443 686.309 337.918 686.309Z" fill="white"/>
<path d="M606.918 983.309C546.538 983.309 496.467 971.773 456.705 948.701C416.943 925.383 388.962 892.003 372.762 848.559C356.563 804.869 353.617 752.589 363.926 691.719C373.744 633.303 393.993 582.25 424.674 538.561C455.6 494.871 494.503 460.877 541.384 436.578C588.509 412.279 641.28 400.129 699.696 400.129C742.404 400.129 779.835 406.756 811.988 420.01C844.387 433.264 870.772 452.532 891.144 477.813C911.516 503.094 925.261 533.652 932.379 569.487C939.743 605.076 939.743 645.33 932.379 690.246L925.016 737.372H419.888L437.56 625.448H755.658C758.113 609.249 756.517 595.013 750.872 582.741C745.472 570.223 736.759 560.528 724.732 553.655C712.95 546.538 698.715 542.979 682.024 542.979C665.334 542.979 649.625 546.538 634.899 553.655C620.417 560.773 608.022 570.714 597.714 583.477C587.65 596.24 580.9 611.213 577.464 628.394L555.374 746.208C552.429 764.371 553.533 780.57 558.688 794.806C563.842 809.042 572.801 820.21 585.564 828.31C598.327 836.409 614.772 840.459 634.899 840.459C648.644 840.459 661.652 838.618 673.925 834.937C686.442 831.009 697.487 825.364 707.06 818.001C716.878 810.392 724.732 801.188 730.623 790.388H916.18C902.926 829.66 881.94 863.777 853.223 892.739C824.751 921.456 789.652 943.792 747.927 959.746C706.446 975.454 659.443 983.309 606.918 983.309Z" fill="white"/>
</g>
<defs>
<clipPath id="clip0_1404_165">
<rect width="1080" height="1080" fill="white"/>
</clipPath>
</defs>
</svg>
